<svg width="33" height="25" viewBox="0 0 33 25" fill="none" xmlns="http://www.w3.org/2000/svg">
<path fill-rule="evenodd" clip-rule="evenodd" d="M19.2707 0V13.8899H24.7493C24.7493 16.9585 22.5979 20.738 19.2593 22.0123L20.6239 25C27.8447 23.5524 33 18.1837 33 10.2664V0H19.2707ZM31.6239 10.2664C31.6239 16.7736 27.736 21.7175 21.4021 23.3963V23.3905L21.0702 22.6711C24.3631 20.738 26.1225 16.8949 26.1225 13.8899V12.5H20.6468V1.38985H31.6239V10.2664ZM0 0V13.8899H5.50143C5.50143 16.9585 3.35007 20.738 0.0114434 22.0123L1.37607 25C8.59688 23.5524 13.7293 18.1837 13.7293 10.2664V0H0ZM12.3532 10.2664C12.3532 16.7765 8.47386 21.7233 2.15423 23.3934L1.82237 22.6739C5.11235 20.7409 6.87464 16.8978 6.87464 13.8927V12.5029H1.37607V1.38985H12.3532V10.2664Z" fill="white"/>
</svg>
