<svg width="132" height="26" viewBox="0 0 132 26" fill="none" xmlns="http://www.w3.org/2000/svg">
<path fill-rule="evenodd" clip-rule="evenodd" d="M117.77 1.00183V7.24597H120.25C120.25 8.62435 119.277 10.3251 117.764 10.8961L118.382 12.2376C121.652 11.5868 123.986 9.17386 123.986 5.61586V1.00183H117.77ZM123.361 5.61586C123.361 8.54146 121.6 10.761 118.732 11.5162V11.5131L118.581 11.1877C120.073 10.3189 120.869 8.59058 120.869 7.23983V6.61971H118.389V1.62501H123.358V5.61586H123.361ZM109.044 1.00183V7.24597H111.533C111.533 8.62435 110.56 10.3251 109.047 10.8961L109.666 12.2376C112.936 11.5868 115.259 9.17386 115.259 5.61586V1.00183H109.044ZM114.635 5.61586C114.635 8.54146 112.877 10.7641 110.018 11.5162L109.868 11.1908C111.356 10.322 112.155 8.59365 112.155 7.2429V6.61971H109.666V1.62501H114.635V5.61586Z" fill="url(#paint0_linear_1_483)"/>
<path d="M15.5894 24.4313C14.4566 24.4313 13.4278 24.198 12.5062 23.7314C11.5846 23.2648 10.7855 22.6416 10.115 21.8649C9.4414 21.0852 8.92396 20.2041 8.56267 19.2187C8.19526 18.2333 8.01462 17.2202 8.01462 16.1826C8.01462 15.0989 8.20751 14.0613 8.59329 13.0758C8.97907 12.0904 9.51488 11.2124 10.2038 10.4388C10.8927 9.66828 11.6979 9.05737 12.6195 8.6061C13.5411 8.15482 14.5454 7.93072 15.6354 7.93072C16.7682 7.93072 17.797 8.1671 18.7186 8.63987C19.6402 9.11263 20.4332 9.74809 21.1006 10.5432C21.765 11.3383 22.2794 12.2255 22.6438 13.2017C23.0051 14.1779 23.1888 15.1818 23.1888 16.2041C23.1888 17.2877 22.9989 18.3253 22.6223 19.3108C22.2427 20.2962 21.7099 21.1742 21.0241 21.9478C20.3352 22.7184 19.5299 23.3262 18.6084 23.7683C17.6837 24.2103 16.6764 24.4313 15.5894 24.4313ZM15.6109 22.5741C16.4712 22.5741 17.2428 22.3899 17.9225 22.0246C18.6022 21.6562 19.1809 21.1681 19.6585 20.5572C20.1331 19.9462 20.4975 19.2586 20.7455 18.4942C20.9965 17.7298 21.119 16.9592 21.119 16.1795C21.119 15.3537 20.9873 14.5555 20.721 13.785C20.4577 13.0144 20.078 12.3299 19.5881 11.7343C19.0952 11.1388 18.5134 10.666 17.8429 10.313C17.1693 9.96299 16.4253 9.78493 15.6078 9.78493C14.7475 9.78493 13.9759 9.96912 13.2962 10.3344C12.6165 10.6998 12.0378 11.1909 11.5601 11.8018C11.0886 12.4158 10.7212 13.0973 10.464 13.8556C10.2068 14.6108 10.0783 15.3875 10.0783 16.1826C10.0783 17.0084 10.2099 17.8065 10.4763 18.5771C10.7396 19.3476 11.1162 20.0322 11.6 20.6278C12.0837 21.2233 12.6654 21.6961 13.3452 22.0491C14.0249 22.3991 14.7811 22.5741 15.6109 22.5741ZM16.5202 19.0007H18.5165L23.0296 24.3178H21.0333L16.5202 19.0007Z" fill="#322D38"/>
<path d="M25.5432 19.5562V12.4218H27.5394V19.1602C27.5394 20.3759 27.7507 21.2846 28.1732 21.8924C28.5958 22.5003 29.2234 22.8042 30.0562 22.8042C30.6012 22.8042 31.1248 22.6875 31.633 22.4511C32.1382 22.2178 32.5975 21.8801 33.0047 21.4411C33.4119 21.0021 33.7303 20.4803 33.9569 19.8724V12.4218H35.9532V22.0306C35.9532 22.2731 36.0022 22.4511 36.1002 22.5647C36.1981 22.6783 36.3604 22.7428 36.587 22.7581V24.3176C36.3604 24.3483 36.1828 24.3667 36.0542 24.3759C35.9256 24.3821 35.8001 24.3882 35.6807 24.3882C35.301 24.3882 34.9765 24.2716 34.704 24.0352C34.4315 23.7988 34.2876 23.5072 34.2723 23.1572L34.2264 21.7665C33.712 22.6476 33.02 23.3322 32.1505 23.8172C31.2809 24.3023 30.3318 24.5448 29.303 24.5448C28.063 24.5448 27.1261 24.1242 26.4923 23.28C25.8585 22.4358 25.5432 21.1955 25.5432 19.5562Z" fill="#322D38"/>
<path d="M44.4559 24.5449C43.5649 24.5449 42.7536 24.3822 42.031 24.0568C41.3054 23.7314 40.6777 23.2832 40.148 22.7153C39.6183 22.1473 39.2111 21.4904 38.9233 20.7475C38.6355 20.0046 38.4916 19.2248 38.4916 18.4052C38.4916 17.5701 38.6355 16.7812 38.9233 16.0383C39.2111 15.2954 39.6183 14.6384 40.148 14.0705C40.6777 13.5026 41.3084 13.0543 42.0402 12.7289C42.7719 12.4035 43.5864 12.2408 44.4773 12.2408C45.353 12.2408 46.1552 12.4035 46.8808 12.7289C47.6065 13.0543 48.2372 13.5026 48.773 14.0705C49.3088 14.6384 49.7222 15.2954 50.01 16.0383C50.2978 16.7812 50.4417 17.5701 50.4417 18.4052C50.4417 19.2248 50.2978 20.0046 50.01 20.7475C49.7222 21.4904 49.3149 22.1473 48.7853 22.7153C48.2556 23.2832 47.6249 23.7314 46.8931 24.0568C46.1613 24.3822 45.35 24.5449 44.4559 24.5449ZM40.5338 18.4266C40.5338 19.2432 40.7114 19.9831 41.0665 20.6492C41.4217 21.3154 41.8932 21.8404 42.4841 22.2241C43.0751 22.6109 43.7303 22.8012 44.4559 22.8012C45.1816 22.8012 45.8429 22.6048 46.4399 22.2118C47.037 21.8189 47.5146 21.2847 47.8698 20.6124C48.225 19.9401 48.4025 19.1941 48.4025 18.3775C48.4025 17.5609 48.225 16.8211 47.8698 16.1549C47.5146 15.4888 47.037 14.9607 46.4399 14.5678C45.8429 14.1749 45.1816 13.9784 44.4559 13.9784C43.7303 13.9784 43.072 14.1779 42.4841 14.5801C41.8932 14.9822 41.4217 15.5133 41.0665 16.1795C40.7114 16.8457 40.5338 17.5947 40.5338 18.4266Z" fill="#322D38"/>
<path d="M58.8122 23.7896C58.6469 23.8664 58.4203 23.9646 58.1325 24.0874C57.8447 24.2102 57.511 24.3177 57.1344 24.4067C56.7547 24.4988 56.3567 24.5448 55.9311 24.5448C55.4473 24.5448 55.0003 24.4558 54.5931 24.2808C54.1859 24.1058 53.8583 23.8295 53.6164 23.455C53.3745 23.0805 53.252 22.6108 53.252 22.0459V14.0028H51.6415V12.4219H53.252V8.43408H55.2483V12.4219H57.9029V14.0028H55.2483V21.4289C55.2789 21.8556 55.4228 22.1749 55.68 22.3806C55.9372 22.5862 56.2403 22.6906 56.5863 22.6906C56.9782 22.6906 57.3426 22.6231 57.6732 22.4849C58.007 22.3468 58.2244 22.2486 58.3315 22.1872L58.8122 23.7896Z" fill="#322D38"/>
<path d="M59.7403 20.8794C59.7403 20.1211 59.9546 19.4642 60.3863 18.9085C60.818 18.3529 61.409 17.9261 62.1652 17.6222C62.9215 17.3183 63.7971 17.1679 64.7953 17.1679C65.325 17.1679 65.8853 17.2109 66.4731 17.2937C67.064 17.3766 67.5845 17.5025 68.0377 17.6713V16.8056C68.0377 15.9031 67.7652 15.1909 67.2202 14.669C66.6752 14.1502 65.9036 13.8892 64.9086 13.8892C64.2595 13.8892 63.6349 14.009 63.0378 14.2454C62.4408 14.4817 61.81 14.8225 61.1456 15.2646L60.42 13.8432C61.1916 13.309 61.9631 12.9069 62.7347 12.6398C63.5063 12.3727 64.3085 12.2376 65.1382 12.2376C66.6507 12.2376 67.8448 12.6582 68.7205 13.4994C69.5961 14.3405 70.037 15.5101 70.037 17.0082V22.0306C70.037 22.2731 70.086 22.4511 70.184 22.5647C70.282 22.6783 70.4442 22.7428 70.6708 22.7581V24.3176C70.4749 24.3483 70.3034 24.3698 70.1595 24.3852C70.0156 24.4005 69.8992 24.4067 69.8074 24.4067C69.3389 24.4067 68.9868 24.2777 68.7541 24.0168C68.5214 23.7558 68.3867 23.4826 68.3561 23.191L68.3102 22.4358C67.7958 23.1081 67.1222 23.6269 66.2925 23.9953C65.4597 24.3606 64.6361 24.5448 63.8216 24.5448C63.0348 24.5448 62.3336 24.3821 61.7121 24.0567C61.0905 23.7313 60.6098 23.2892 60.2608 22.7366C59.9148 22.181 59.7403 21.564 59.7403 20.8794ZM67.4529 21.7174C67.6335 21.5056 67.7774 21.2907 67.8846 21.0697C67.9887 20.8517 68.0438 20.6645 68.0438 20.5141V19.0405C67.5754 18.8594 67.0824 18.7182 66.5711 18.6199C66.0567 18.5217 65.5515 18.4726 65.0525 18.4726C64.039 18.4726 63.2185 18.6721 62.5908 19.0743C61.9631 19.4764 61.6508 20.0229 61.6508 20.7197C61.6508 21.0973 61.7519 21.4657 61.957 21.8188C62.1622 22.1749 62.4622 22.4665 62.8633 22.6937C63.2644 22.9208 63.7604 23.0344 64.3483 23.0344C64.9667 23.0344 65.5577 22.9086 66.118 22.6599C66.6721 22.4112 67.1192 22.095 67.4529 21.7174Z" fill="#322D38"/>
<path d="M77.2935 24.5448C76.3106 24.5448 75.389 24.379 74.5256 24.0506C73.6652 23.7221 72.9212 23.2309 72.3028 22.5709L73.0743 21.1495C73.754 21.7911 74.4338 22.2485 75.1165 22.5248C75.7962 22.8011 76.4913 22.9362 77.2016 22.9362C78.0191 22.9362 78.6835 22.7827 79.1979 22.4726C79.7123 22.1626 79.9694 21.7082 79.9694 21.1065C79.9694 20.6675 79.8378 20.3421 79.5714 20.1272C79.3081 19.9154 78.9315 19.7374 78.4477 19.5931C77.964 19.4488 77.3884 19.2861 76.724 19.105C75.9065 18.8625 75.2206 18.6046 74.6603 18.3314C74.1 18.0581 73.6775 17.7174 73.3897 17.3091C73.1019 16.9008 72.958 16.3851 72.958 15.7619C72.958 15.0036 73.1539 14.362 73.5489 13.8401C73.9408 13.3182 74.4827 12.9192 75.1716 12.6459C75.8605 12.3727 76.6413 12.2376 77.52 12.2376C78.3957 12.2376 79.1918 12.3758 79.9021 12.649C80.6124 12.9253 81.2248 13.3305 81.7392 13.8647L80.8329 15.2615C80.3644 14.7734 79.85 14.4111 79.2897 14.1717C78.7294 13.9353 78.1018 13.8156 77.4067 13.8156C76.9995 13.8156 76.5984 13.8647 76.2065 13.9629C75.8116 14.0612 75.487 14.2361 75.2298 14.4848C74.9726 14.7335 74.844 15.0865 74.844 15.5408C74.844 15.9184 74.9451 16.2193 75.1502 16.4372C75.3553 16.6583 75.6554 16.8425 76.0565 16.9929C76.4576 17.1433 76.9444 17.3122 77.52 17.4933C78.411 17.7512 79.1856 18.009 79.8439 18.2669C80.5022 18.5248 81.0105 18.8563 81.3748 19.2677C81.7361 19.676 81.9198 20.2439 81.9198 20.9715C81.9198 22.092 81.4973 22.9669 80.6492 23.5962C79.8041 24.2317 78.6835 24.5448 77.2935 24.5448Z" fill="#322D38"/>
<path d="M90.4221 23.7896C90.2568 23.8664 90.0302 23.9646 89.7424 24.0874C89.4546 24.2102 89.1209 24.3177 88.7443 24.4067C88.3646 24.4988 87.9666 24.5448 87.541 24.5448C87.0572 24.5448 86.6102 24.4558 86.203 24.2808C85.7958 24.1058 85.4682 23.8295 85.2263 23.455C84.9844 23.0805 84.8619 22.6108 84.8619 22.0459V14.0028H83.2514V12.4219H84.8619V8.43408H86.8582V12.4219H89.5128V14.0028H86.8582V21.4289C86.8888 21.8556 87.0327 22.1749 87.2899 22.3806C87.5471 22.5862 87.8502 22.6906 88.1962 22.6906C88.5881 22.6906 88.9525 22.6231 89.2831 22.4849C89.6169 22.3468 89.8342 22.2486 89.9414 22.1872L90.4221 23.7896Z" fill="#322D38"/>
<path d="M92.284 10.1072V7.58683H94.2803V10.1072H92.284ZM92.284 24.3177V12.3544H94.2803V24.3177H92.284Z" fill="#322D38"/>
<path d="M102.737 24.5448C101.846 24.5448 101.031 24.3821 100.3 24.0567C99.5678 23.7313 98.931 23.28 98.3951 22.7029C97.8593 22.1257 97.4429 21.4657 97.149 20.7228C96.8551 19.9799 96.7081 19.1909 96.7081 18.3559C96.7081 17.2323 96.9592 16.2101 97.4552 15.286C97.9542 14.362 98.6585 13.6222 99.5647 13.0696C100.471 12.517 101.521 12.2376 102.715 12.2376C103.879 12.2376 104.895 12.5017 105.765 13.0297C106.634 13.5577 107.28 14.2638 107.703 15.151L105.753 15.7711C105.449 15.2062 105.027 14.7672 104.482 14.4541C103.937 14.141 103.334 13.9844 102.666 13.9844C101.941 13.9844 101.279 14.1747 100.682 14.5523C100.085 14.9299 99.6137 15.4487 99.2647 16.1057C98.9156 16.7627 98.7442 17.5148 98.7442 18.3621C98.7442 19.194 98.9218 19.9461 99.2769 20.6184C99.6321 21.2907 100.107 21.8249 100.707 22.2178C101.304 22.6108 101.965 22.8073 102.691 22.8073C103.159 22.8073 103.609 22.7244 104.041 22.5555C104.473 22.3867 104.849 22.1626 105.174 21.8802C105.498 21.5977 105.722 21.2877 105.841 20.953L107.792 21.5486C107.55 22.1288 107.182 22.6446 106.693 23.0958C106.2 23.5471 105.618 23.9032 104.947 24.1611C104.277 24.4159 103.539 24.5448 102.737 24.5448Z" fill="#322D38"/>
<defs>
<linearGradient id="paint0_linear_1_483" x1="109.043" y1="6.62045" x2="123.984" y2="6.62045" gradientUnits="userSpaceOnUse">
<stop stop-color="#DE8667"/>
<stop offset="1" stop-color="#EFB467"/>
</linearGradient>
</defs>
</svg>
